<?xml version="1.0" encoding="UTF-8" standalone="no"?>
<!DOCTYPE svg PUBLIC "-//W3C//DTD SVG 1.1//EN" "http://www.w3.org/Graphics/SVG/1.1/DTD/svg11.dtd">
<svg width="100%" height="100%" viewBox="0 0 3000 3000" version="1.1" xmlns="http://www.w3.org/2000/svg" xmlns:xlink="http://www.w3.org/1999/xlink" xml:space="preserve" xmlns:serif="http://www.serif.com/" style="fill-rule:evenodd;clip-rule:evenodd;stroke-linejoin:round;stroke-miterlimit:2;">
    <g transform="matrix(1.73974,0,0,1.73974,-1117.78,-882.065)">
        <path d="M1765.99,1469.5L1849,1541.95L1738.9,1651.14L1740.32,1056.92L1775.36,1057.1L1714.2,912.955L1654.89,1057.07L1690.63,1057.14L1691.17,1700.23L1602.35,1788.36L1600.01,1126.91L1547.66,1126.42L1550.67,1843.28L1503.56,1888.95L1459.24,1842.94L1460.18,1228.84L1409.62,1227.92L1408.06,1789.03L1316.93,1701.3L1317.59,1326.84L1267.59,1327.09L1266.2,1653.76L1160.39,1544.3L1240.29,1463.4L1240.49,1301.81L1345.75,1301L1345.56,1353.5L1381.94,1323.68L1380.3,1200.46L1482.24,1200.64L1482.24,1216.92L1504.69,1205.54L1521.29,1223.01L1521.11,1103.16L1624.43,1103.26L1625.04,1327.19L1663.26,1363.09L1663.16,1086.58L1612.06,1087.02L1612.48,1082.49L1714.37,849.465L1820.62,1083.82L1764.76,1083.57L1765.99,1469.5ZM1345.41,1395.41L1344.34,1692.04L1382.74,1729.47L1382.69,1362.68L1345.41,1395.41ZM1482.24,1248.54L1482.24,1831.2L1504.32,1849.37L1521.31,1832.79L1521.02,1254.14L1504.69,1236.43L1482.24,1248.54ZM1625.14,1366.54L1626.1,1723.4L1660.47,1691.28L1661.74,1397.41L1625.14,1366.54ZM1766.09,1500L1766.36,1586.97L1805.59,1544.06L1766.09,1500ZM1244.64,1592.68L1244.49,1495.17L1198.81,1543.09L1244.64,1592.68Z" style="fill:url(#_Linear1);"/>
    </g>
    <defs>
        <linearGradient id="_Linear1" x1="0" y1="0" x2="1" y2="0" gradientUnits="userSpaceOnUse" gradientTransform="matrix(688.61,0,0,1039.49,1160.39,1369.21)"><stop offset="0" style="stop-color:rgb(150,255,33);stop-opacity:1"/><stop offset="1" style="stop-color:rgb(0,154,91);stop-opacity:1"/></linearGradient>
    </defs>
</svg>
