<?xml version="1.0" encoding="UTF-8" standalone="no"?><!DOCTYPE svg PUBLIC "-//W3C//DTD SVG 1.1//EN" "http://www.w3.org/Graphics/SVG/1.1/DTD/svg11.dtd"><svg width="100%" height="100%" viewBox="0 0 313 313" version="1.1" xmlns="http://www.w3.org/2000/svg" xmlns:xlink="http://www.w3.org/1999/xlink" xml:space="preserve" xmlns:serif="http://www.serif.com/" style="fill-rule:evenodd;clip-rule:evenodd;stroke-linejoin:round;stroke-miterlimit:2;"><g transform="matrix(2.08333,0,0,2.08333,0,0)"><g transform="matrix(0.12605,0,0,0.12605,-19.5368,-19.5372)"><g transform="matrix(1,0,0,1,0,-157.611)"><path d="M444.783,750c0,-168.454 136.763,-305.217 305.217,-305.217c129.94,0 235.435,105.495 235.435,235.435c-0,129.94 -105.495,235.435 -235.435,235.435c91.426,-0 165.653,-74.227 165.653,-165.653c-0,-91.426 -74.227,-165.653 -165.653,-165.653c-91.426,0 -165.653,74.227 -165.653,165.653l0,480.329c-0.357,0.183 -39.077,39.765 -65.251,65.939c-26.173,26.173 -74.908,74.37 -74.313,74.17l0,-620.438Z" style="fill:url(#_Linear1);"/></g><g transform="matrix(1,0,0,1,0,-157.611)"><path d="M750,444.783c168.454,0 305.217,136.763 305.217,305.217c-0,168.454 -136.763,305.217 -305.217,305.217c-61.046,-0 -117.931,-17.961 -165.653,-48.882l0,-256.335c0,91.426 74.227,165.653 165.653,165.653c129.94,-0 235.435,-105.495 235.435,-235.435c-0,-129.94 -105.495,-235.435 -235.435,-235.435Z" style="fill:url(#_Linear2);"/></g><g transform="matrix(1,0,0,1,-236.818,-157.611)"><path d="M1115.93,646.262c0.583,-5.946 0.881,-11.974 0.881,-18.072c-0,-92.749 -68.996,-169.511 -158.418,-181.715c9.319,-1.117 18.804,-1.692 28.422,-1.692c129.94,0 235.434,105.495 235.434,235.435c0,129.94 -105.494,235.435 -235.434,235.435c91.426,-0 165.652,-74.227 165.652,-165.653c0,-39.255 -13.683,-75.339 -36.537,-103.738Z" style="fill-opacity:0.09;"/></g></g></g><defs><linearGradient id="_Linear1" x1="0" y1="0" x2="1" y2="0" gradientUnits="userSpaceOnUse" gradientTransform="matrix(540.651,0,0,540.651,444.783,907.611)"><stop offset="0" style="stop-color:#0faaa6;stop-opacity:1"/><stop offset="0.15" style="stop-color:#26d3cf;stop-opacity:1"/><stop offset="0.33" style="stop-color:#39f4ef;stop-opacity:1"/><stop offset="1" style="stop-color:#3ffffa;stop-opacity:1"/></linearGradient><linearGradient id="_Linear2" x1="0" y1="0" x2="1" y2="0" gradientUnits="userSpaceOnUse" gradientTransform="matrix(470.869,0,0,356.538,584.347,750)"><stop offset="0" style="stop-color:#0faaa6;stop-opacity:1"/><stop offset="0.15" style="stop-color:#26d3cf;stop-opacity:1"/><stop offset="0.33" style="stop-color:#39f4ef;stop-opacity:1"/><stop offset="1" style="stop-color:#3ffffa;stop-opacity:1"/></linearGradient></defs></svg>