<?xml version="1.0" encoding="UTF-8" standalone="no"?>
<!DOCTYPE svg PUBLIC "-//W3C//DTD SVG 1.1//EN" "http://www.w3.org/Graphics/SVG/1.1/DTD/svg11.dtd">
<svg width="150px" height="150px" version="1.1" xmlns="http://www.w3.org/2000/svg" xmlns:xlink="http://www.w3.org/1999/xlink" xml:space="preserve" xmlns:serif="http://www.serif.com/" style="fill-rule:evenodd;clip-rule:evenodd;stroke-linejoin:round;stroke-miterlimit:2;">
    <g transform="matrix(1.08198,0,0,1.08198,8.41396,-48.8498)">
        <g transform="matrix(183.039,0,0,183.039,10.29,138.901)">
            <path d="M0.279,-0C0.257,-0 0.237,-0.002 0.218,-0.007L0.243,-0.108C0.254,-0.104 0.266,-0.102 0.279,-0.102C0.299,-0.102 0.318,-0.106 0.336,-0.114C0.354,-0.121 0.37,-0.132 0.383,-0.145C0.396,-0.158 0.407,-0.174 0.415,-0.192C0.422,-0.21 0.426,-0.229 0.426,-0.25C0.426,-0.27 0.422,-0.289 0.415,-0.307C0.407,-0.324 0.396,-0.34 0.383,-0.353C0.37,-0.366 0.354,-0.377 0.336,-0.385C0.318,-0.392 0.299,-0.396 0.279,-0.396C0.259,-0.396 0.24,-0.392 0.222,-0.385C0.204,-0.377 0.188,-0.366 0.175,-0.353C0.162,-0.34 0.151,-0.324 0.144,-0.307C0.136,-0.289 0.132,-0.27 0.132,-0.25L0.132,0.233L0.03,0.13L0.03,-0.25C0.03,-0.284 0.037,-0.316 0.05,-0.347C0.063,-0.377 0.08,-0.403 0.103,-0.426C0.125,-0.449 0.151,-0.467 0.182,-0.48C0.212,-0.493 0.244,-0.5 0.279,-0.5C0.313,-0.5 0.345,-0.493 0.376,-0.48C0.407,-0.467 0.433,-0.449 0.456,-0.426C0.479,-0.403 0.497,-0.377 0.51,-0.347C0.523,-0.316 0.53,-0.284 0.53,-0.25C0.53,-0.215 0.523,-0.183 0.51,-0.153C0.497,-0.122 0.479,-0.096 0.456,-0.073C0.433,-0.05 0.407,-0.033 0.376,-0.02C0.345,-0.007 0.313,-0 0.279,-0Z" style="fill:rgb(30,206,201);fill-rule:nonzero;"/>
        </g>
    </g>
</svg>
