<?xml version="1.0" encoding="UTF-8" standalone="no"?>
<!DOCTYPE svg PUBLIC "-//W3C//DTD SVG 1.1//EN" "http://www.w3.org/Graphics/SVG/1.1/DTD/svg11.dtd">
<svg width="100%" height="100%" viewBox="0 0 512 512" version="1.1" xmlns="http://www.w3.org/2000/svg" xmlns:xlink="http://www.w3.org/1999/xlink" xml:space="preserve" xmlns:serif="http://www.serif.com/" style="fill-rule:evenodd;clip-rule:evenodd;stroke-linejoin:round;stroke-miterlimit:2;">
    <g transform="matrix(1.38876,0,0,1.38876,-796.541,-642.632)">
        <path d="M834.558,492.02C824.894,519.451 811.528,542.01 795.777,561.43C774.821,590.974 753.477,616.012 731.886,638.18C708.535,664.979 688.941,691.095 672.505,716.637L644.505,783.283L647.244,802.129L649.51,788.985L672.664,734.448C674.977,733.912 675.441,735.285 675.416,737.161L675.084,750L682.694,740.932L680.162,730.893C680.035,729.356 681.419,727.668 682.623,727.486C685.292,728.155 686.698,730.375 687.283,733.603L687.989,743.575L692.034,729.046C690.886,727.518 689.978,725.923 690.262,723.991C695.587,725.757 698.477,729.763 699.545,735.444L731.267,715.459L721.879,707.599C716.244,705.265 718.836,696.003 715.934,691.099L719.218,689.501C726.948,693.988 732.503,700.787 737.056,708.651L749.463,686.659L769.471,669C760.336,670.526 751.814,670.535 743.955,668.905L777.22,662.318C787.263,656.191 793.702,647.773 798.101,638.056L769.917,635.928L809.396,628.867C817.671,620.792 823.185,610.427 826.867,598.543C815.14,605.632 803.784,608.034 792.752,606.361L833.669,586.262C839.283,580.853 841.567,573.676 842.223,565.636C834.595,570.839 827.101,573.81 819.852,572.698C827.106,560.314 833.674,551.057 842.026,546.168C835.478,537.19 835.566,528.212 842.369,519.234C836.44,510.002 834.231,500.95 834.558,492.02Z" style="fill:url(#_Linear1);"/>
    </g>
    <g transform="matrix(1.38876,0,0,1.38876,-796.541,-642.632)">
        <path d="M653.631,802.129C680.397,790.472 707.785,780.996 735.657,773.223C742.612,771.928 749.363,771.387 755.393,772.852C757.615,773.915 760.066,774.882 758.511,778.333L753.13,789.2C751.579,793.658 760.487,794.033 760.487,794.033C760.487,794.033 782.865,794.139 794.166,792.945C803.959,792.658 813.396,789.979 823.56,788.715C844.075,786.164 871.292,782.199 871.292,782.199L805.077,794.792C796.462,796.19 788.076,796.81 778.966,797.111C772.071,797.169 771.447,798.547 758.355,796.66C751.376,795.654 750.619,794.178 750,791.426C749.191,787.827 757.015,777.526 753.577,776.402C751.434,774.716 742.831,775.304 737.689,776.467C722.786,779.837 653.631,802.129 653.631,802.129Z" style="fill:url(#_Linear2);"/>
    </g>
    <defs>
        <linearGradient id="_Linear1" x1="0" y1="0" x2="1" y2="0" gradientUnits="userSpaceOnUse" gradientTransform="matrix(197.863,0,0,310.109,644.505,647.074)"><stop offset="0" style="stop-color:rgb(188,163,129);stop-opacity:1"/><stop offset="1" style="stop-color:rgb(138,113,80);stop-opacity:1"/></linearGradient>
        <linearGradient id="_Linear2" x1="0" y1="0" x2="1" y2="0" gradientUnits="userSpaceOnUse" gradientTransform="matrix(217.662,0,0,30.1535,653.631,787.052)"><stop offset="0" style="stop-color:rgb(138,113,80);stop-opacity:1"/><stop offset="1" style="stop-color:white;stop-opacity:1"/></linearGradient>
    </defs>
</svg>
